<svg width="20" height="19" viewBox="0 0 20 19" fill="none" xmlns="http://www.w3.org/2000/svg">
<path fill-rule="evenodd" clip-rule="evenodd" d="M9.99728 2.31382C11.6742 0.097821 14.7573 -0.435256 17.0375 1.21036L17.0395 1.21181C18.0769 1.96571 18.7542 3.04044 19.0618 4.20127C19.2718 4.99625 19.3129 5.83843 19.1502 6.66632L19.1491 6.67334C19.1462 6.68998 19.1423 6.71079 19.1372 6.73564C19.1269 6.78534 19.1114 6.85114 19.0887 6.93196C19.0433 7.09372 18.9688 7.31506 18.848 7.58749C18.6062 8.13311 18.1812 8.87841 17.4391 9.75732L17.4338 9.76361L9.99696 18.1889L2.56078 9.76435L2.55608 9.75881C1.81305 8.88345 1.38761 8.1374 1.14563 7.59018C1.02482 7.31697 0.950327 7.09466 0.904909 6.93219C0.882214 6.85101 0.866817 6.78491 0.856535 6.73502C0.851395 6.71008 0.847536 6.68921 0.844683 6.67253L0.842907 6.66164C0.690078 5.83797 0.730431 5.00095 0.929882 4.21001L0.932089 4.20126C1.23981 3.04008 1.91761 1.96435 2.96506 1.21013C5.24408 -0.434326 8.32738 0.0967326 9.99728 2.31382ZM11.1043 3.34148L9.99696 5.05074L8.88898 3.34058C7.71451 1.6472 5.47681 1.24728 3.84254 2.4267C3.10315 2.959 2.61082 3.7261 2.38325 4.58117C2.23349 5.17755 2.20692 5.79684 2.31907 6.39515L2.32245 6.41318L2.32363 6.4218L2.32566 6.43224C2.32905 6.44871 2.33631 6.48109 2.34952 6.52835C2.37592 6.62277 2.42626 6.77723 2.51749 6.98354C2.69917 7.39441 3.0455 8.01645 3.69504 8.78268L9.99696 15.9222L16.2982 8.78343C16.9483 8.01241 17.2949 7.38987 17.4767 6.9797C17.568 6.7737 17.6183 6.6199 17.6447 6.52613C17.6579 6.47919 17.6651 6.44713 17.6685 6.43091L17.6704 6.42086L17.6721 6.40858L17.6765 6.38683C17.7948 5.79245 17.7682 5.17748 17.6117 4.58496C17.3845 3.72828 16.8922 2.9594 16.1588 2.42601C14.5256 1.24814 12.2876 1.64638 11.1043 3.34148Z" fill="#E4E6E9"/>
</svg>
