
<svg width="76" height="18" viewBox="0 0 76 18" fill="none" xmlns="http://www.w3.org/2000/svg">
<path d="M0 17.5563H7.52753C11.2796 17.5563 13.3953 15.5354 13.3953 12.7818C13.3953 10.3 11.6186 8.74002 9.58474 8.64547V8.48002C11.4316 8.09002 12.7407 6.74276 12.7407 4.79278C12.7407 2.1928 10.7887 0.443726 6.98985 0.443726H0V17.5563ZM3.97416 14.2945V10.1346H6.66257C8.25223 10.1227 9.23408 10.9855 9.23408 12.3327C9.23408 13.55 8.40418 14.2945 6.59243 14.2945H3.97416ZM3.97416 7.51094V3.65824H6.38204C7.79637 3.65824 8.67302 4.39097 8.67302 5.54914C8.67302 6.77822 7.69117 7.49912 6.33528 7.51094H3.97416Z" fill="black"/>
<path d="M24.219 17.5563L26.323 10.82H30.2971L32.4011 17.5563H36.6792L30.9517 0.443726H25.6684L19.9176 17.5563H24.219ZM26.323 10.82L28.2399 4.6746H28.3802L30.2971 10.82H26.323Z" fill="black"/>
<path d="M43.8327 17.5563H54.9136V14.2709H47.8068V0.443726H43.8327V17.5563Z" fill="black"/>
<path d="M61.7631 3.72915H66.9062V17.5563H70.857V3.72915H76V0.443726H61.7631V3.72915Z" fill="black"/>
</svg>

