<svg width="165" height="33" viewBox="0 0 165 33" fill="none" xmlns="http://www.w3.org/2000/svg">
<path d="M10.5 32.0804H24.7627C31.8719 32.0804 35.8805 28.2919 35.8805 23.1298C35.8805 18.4772 32.5142 15.5528 28.6606 15.3756V15.0654C32.1598 14.3343 34.6403 11.8086 34.6403 8.15303C34.6403 3.27894 30.9417 0 23.7439 0H10.5V32.0804ZM18.03 25.9656V18.1671H23.1238C26.1358 18.1449 27.9962 19.7622 27.9962 22.2879C27.9962 24.5699 26.4237 25.9656 22.9909 25.9656H18.03ZM18.03 13.2487V6.02615H22.5923C25.2721 6.02615 26.9331 7.39976 26.9331 9.57095C26.9331 11.8751 25.0727 13.2265 22.5037 13.2487H18.03Z" fill="black"/>
<path d="M56.3886 32.0804L60.3751 19.4521H67.9051L71.8916 32.0804H79.9974L69.1453 0H59.1349L48.2385 32.0804H56.3886ZM60.3751 19.4521L64.0072 7.93148H64.273L67.9051 19.4521H60.3751Z" fill="black"/>
<path d="M93.5514 32.0804H114.547V25.9213H101.081V0H93.5514V32.0804Z" fill="black"/>
<path d="M127.525 6.15908H137.27V32.0804H144.755V6.15908H154.5V0H127.525V6.15908Z" fill="black"/>
</svg>
