<svg width="76" height="17" viewBox="0 0 76 17" fill="none" xmlns="http://www.w3.org/2000/svg">
<path d="M0 16.9313H7.52753C11.2796 16.9313 13.3953 14.9318 13.3953 12.2074C13.3953 9.75188 11.6186 8.20842 9.58474 8.11487V7.95117C11.4316 7.56531 12.7407 6.23232 12.7407 4.30299C12.7407 1.73055 10.7887 0 6.98985 0H0V16.9313ZM3.97416 13.7041V9.58818H6.66257C8.25223 9.57649 9.23408 10.4301 9.23408 11.7631C9.23408 12.9674 8.40418 13.7041 6.59243 13.7041H3.97416ZM3.97416 6.99236V3.18047H6.38204C7.79637 3.18047 8.67302 3.90543 8.67302 5.05133C8.67302 6.2674 7.69117 6.98066 6.33528 6.99236H3.97416Z" fill="#989CA1"/>
<path d="M24.219 16.9313L26.323 10.2664H30.2971L32.4011 16.9313H36.6792L30.9517 0H25.6684L19.9176 16.9313H24.219ZM26.323 10.2664L28.2399 4.18606H28.3802L30.2971 10.2664H26.323Z" fill="#989CA1"/>
<path d="M43.8327 16.9313H54.9136V13.6807H47.8068V0H43.8327V16.9313Z" fill="#989CA1"/>
<path d="M61.7631 3.25063H66.9062V16.9313H70.857V3.25063H76V0H61.7631V3.25063Z" fill="#989CA1"/>
</svg>
